# xmcd
# Track frame offsets:
# 207
# 18205
# 35897
# 51450
# 66735
# 78545
# 93470
# 111082
# 125432
# 135267
# 147282
# 156375
#
# Disc length: 2320 seconds
# Revision: 0
# Processed by: cddbd v1.4PL0 Copyright (c) Steve Scherf et al.
# Submitted via: VisiTrax 2.9.5.180 - For more info visit www.synapsa.com
#
DISCID=af090e0c
DTITLE=Mary Duff - Winning Ways
DYEAR=1989
DGENRE=Irsk
TTITLE0=Goin' gone
TTITLE1=Yellow roses
TTITLE2=Eighteen wheels and a dozen roses
TTITLE3=Can sleep in your arms
TTITLE4=Once a day
TTITLE5=Does Fort Worth ever cross our mind
TTITLE6=One bird on a wing
TTITLE7=Just out of reach
TTITLE8=Heartaches by the number
TTITLE9=I'm not that lonely yet
TTITLE10=Come on in
TTITLE11=Maggie
EXTD=
EXTT0=
EXTT1=
EXTT2=
EXTT3=
EXTT4=
EXTT5=
EXTT6=
EXTT7=
EXTT8=
EXTT9=
EXTT10=
EXTT11=
PLAYORDER=
